<svg width="1024" height="1024" viewBox="0 0 1024 1024" fill="none" xmlns="http://www.w3.org/2000/svg">
<path d="M291.246 461.671L256.31 582.931C256.142 583.542 255.741 583.847 255.106 583.847H223.206C222.965 583.848 222.73 583.772 222.533 583.63C222.337 583.488 222.189 583.288 222.11 583.057L160.68 390.147C160.428 389.357 160.721 388.962 161.56 388.962H200.502C201.268 388.962 201.759 389.327 201.974 390.057L238.33 508.048C238.737 509.389 239.132 509.383 239.515 508.03L272.871 389.896C273.05 389.273 273.463 388.962 274.11 388.962H308.795C309.573 388.962 310.064 389.339 310.268 390.093L343.462 509.27C343.558 509.617 343.659 509.623 343.767 509.288L380.949 389.932C381.037 389.65 381.212 389.404 381.448 389.229C381.684 389.054 381.968 388.961 382.26 388.962H420.771C421.633 388.962 421.932 389.375 421.669 390.201L360.364 583.2C360.232 583.631 359.939 583.847 359.484 583.847H326.883C326.356 583.847 326.021 583.596 325.877 583.093L291.893 461.689C291.677 460.923 291.461 460.917 291.246 461.671Z" fill="white"/>
<path d="M523.945 479.651C523.657 479.651 523.381 479.764 523.176 479.965C522.971 480.167 522.854 480.441 522.849 480.728C522.562 494.523 521.304 512.826 526.01 524.447C531.489 537.973 545.356 549.019 560.965 548.893C561.197 548.891 561.428 548.935 561.644 549.022C561.859 549.11 562.056 549.239 562.221 549.403C562.386 549.566 562.518 549.761 562.607 549.976C562.697 550.191 562.743 550.421 562.743 550.654V585.212C562.743 585.421 562.701 585.628 562.619 585.82C562.537 586.013 562.416 586.186 562.265 586.331C562.114 586.475 561.935 586.587 561.739 586.661C561.544 586.734 561.335 586.767 561.126 586.757C525.022 585.068 496.229 561.233 487.859 527.447C486.23 520.933 485.434 511.485 485.47 499.103C485.518 470.46 485.524 441.841 485.488 413.246C485.488 412.587 485.805 412.15 486.44 411.935L521.717 400.17C522.424 399.93 522.777 400.188 522.777 400.942V443.745C522.777 443.983 522.872 444.212 523.04 444.38C523.209 444.549 523.437 444.643 523.675 444.643H561.611C562.366 444.643 562.743 445.014 562.743 445.757V478.322C562.743 479.232 562.294 479.687 561.396 479.687L523.945 479.651Z" fill="white"/>
<path d="M460.916 441.608C460.724 488.68 460.712 535.763 460.88 582.859C460.88 583.518 460.557 583.847 459.91 583.847H424.04C423.405 583.847 423.088 583.53 423.088 582.895V452.762C423.088 452.594 423.14 452.43 423.236 452.292C423.333 452.153 423.469 452.048 423.627 451.99L460.359 439.794C460.443 439.766 460.531 439.756 460.619 439.764C460.706 439.772 460.792 439.798 460.869 439.84C460.946 439.882 461.014 439.939 461.069 440.009C461.123 440.078 461.163 440.157 461.185 440.243C461.353 440.853 461.263 441.308 460.916 441.608Z" fill="white"/>
<path d="M700.602 440.746V583.057C700.602 583.266 700.519 583.467 700.37 583.616C700.222 583.764 700.021 583.847 699.812 583.847H663.672C663.462 583.847 663.261 583.764 663.113 583.616C662.965 583.467 662.882 583.266 662.882 583.057V452.726C662.881 452.56 662.932 452.397 663.029 452.262C663.126 452.126 663.263 452.025 663.42 451.972L699.56 439.991C699.679 439.951 699.807 439.94 699.931 439.959C700.055 439.978 700.173 440.027 700.275 440.1C700.377 440.174 700.46 440.271 700.517 440.383C700.574 440.496 700.603 440.62 700.602 440.746Z" fill="white"/>
<path d="M654.331 477.909C654.331 478.352 654.11 478.591 653.667 478.627C628.933 480.836 610.863 497.397 610.54 522.526C610.276 542.655 610.229 562.772 610.396 582.877C610.408 583.524 610.091 583.847 609.444 583.847H573.987C573.376 583.847 573.071 583.542 573.071 582.931C573.035 562.562 573.077 542.212 573.197 521.879C573.448 476.957 609.265 442.991 653.38 441.087C653.503 441.082 653.626 441.102 653.741 441.146C653.856 441.19 653.962 441.257 654.051 441.342C654.14 441.428 654.21 441.53 654.259 441.644C654.307 441.757 654.332 441.88 654.331 442.003V477.909Z" fill="white"/>
<path d="M758.943 577.884L758.997 632.075C758.995 632.21 758.961 632.343 758.899 632.463C758.836 632.583 758.746 632.687 758.636 632.765C758.525 632.844 758.398 632.896 758.264 632.916C758.13 632.937 757.994 632.925 757.865 632.883L722.12 620.884C721.582 620.705 721.312 620.334 721.312 619.771C721.192 585.583 721.198 551.462 721.33 517.407C721.39 503.277 724.569 490.572 730.868 479.292C751.83 441.769 801.71 432.34 835.802 457.917C880.923 491.757 868.996 564.682 815.218 582.159C796.609 588.206 777.959 586.715 759.266 577.686C759.232 577.667 759.194 577.657 759.155 577.657C759.117 577.658 759.079 577.669 759.046 577.689C759.012 577.709 758.985 577.738 758.967 577.772C758.949 577.807 758.941 577.845 758.943 577.884ZM826.031 514.73C826.031 505.846 822.502 497.325 816.219 491.043C809.937 484.761 801.416 481.231 792.532 481.231C788.133 481.231 783.776 482.098 779.712 483.781C775.648 485.465 771.955 487.932 768.844 491.043C765.733 494.154 763.266 497.847 761.582 501.911C759.899 505.975 759.032 510.331 759.032 514.73C759.032 519.129 759.899 523.485 761.582 527.55C763.266 531.614 765.733 535.307 768.844 538.417C771.955 541.528 775.648 543.996 779.712 545.679C783.776 547.362 788.133 548.229 792.532 548.229C801.416 548.229 809.937 544.7 816.219 538.417C822.502 532.135 826.031 523.615 826.031 514.73Z" fill="white"/>
</svg>
